<svg xmlns="http://www.w3.org/2000/svg" xmlns:xlink="http://www.w3.org/1999/xlink" width="1200" height="1200" viewBox="0 0 512 512" fill="none" class="h-full w-full" id="iconWithBackground"><rect id="r4" width="384" height="384" x="64" y="64" rx="83" fill="url(#linearGradient-iconWithBackground)" stroke="#000000" stroke-width="128" stroke-opacity="0%" paint-order="stroke"/><rect width="384" height="384" x="64" y="64" fill="url(#glare)" rx="83" style="mix-blend-mode: overlay;"/><defs><linearGradient id="linearGradient-iconWithBackground" gradientUnits="userSpaceOnUse" gradientTransform="rotate(0)" style="transform-origin:center center"><stop stop-color="#5865f2"/><stop offset="1" stop-color="#610c9f"/></linearGradient><radialGradient id="glare" cx="0" cy="0" r="1" gradientUnits="userSpaceOnUse" gradientTransform="translate(256) rotate(90) scale(512)"><stop stop-color="white"/><stop offset="1" stop-color="white" stop-opacity="0"/></radialGradient><clipPath id="clip"><use xlink:href="#r4"/></clipPath></defs><svg xmlns="http://www.w3.org/2000/svg" width="369" height="369" viewBox="0 0 48 48" x="71.5" y="71.5"><path fill="#ffffff" fill-rule="evenodd" d="M11.671 10.027a2 2 0 0 0-1.644 2.302l4 24a2 2 0 0 0 3.71.663L24 26.031l6.263 10.961a2 2 0 0 0 3.71-.663l4-24a2 2 0 1 0-3.946-.658l-3.077 18.46l-5.214-9.123a2 2 0 0 0-3.473 0l-5.214 9.124l-3.076-18.461a2 2 0 0 0-2.302-1.644Z" clip-rule="evenodd"/></svg></svg>